<svg width="16" height="18" viewBox="0 0 16 18" fill="none" xmlns="http://www.w3.org/2000/svg">
<path d="M12.7142 12.8807C11.9337 13.6612 10.3015 15.2935 9.17833 16.4166C8.52745 17.0675 7.47323 17.0678 6.82235 16.4169C5.71878 15.3134 4.11816 13.7127 3.28612 12.8807C0.682622 10.2772 0.682622 6.05612 3.28612 3.45262C5.88961 0.849126 10.1107 0.849126 12.7142 3.45262C15.3177 6.05612 15.3177 10.2772 12.7142 12.8807Z" stroke="#ACADB9" stroke-width="1.25" stroke-linecap="round" stroke-linejoin="round"/>
<path d="M10.5002 8.16667C10.5002 9.54738 9.38087 10.6667 8.00016 10.6667C6.61945 10.6667 5.50016 9.54738 5.50016 8.16667C5.50016 6.78595 6.61945 5.66667 8.00016 5.66667C9.38087 5.66667 10.5002 6.78595 10.5002 8.16667Z" stroke="#ACADB9" stroke-width="1.25" stroke-linecap="round" stroke-linejoin="round"/>
</svg>
